<svg width="359" height="267" viewBox="0 0 359 267" fill="none" xmlns="http://www.w3.org/2000/svg">
<g filter="url(#filter0_d)">
<rect x="4.64889" y="0.28598" width="350" height="258" fill="#CACACA"/>
</g>
<rect x="5.89889" y="1.53598" width="347.5" height="255.5" stroke="black" stroke-opacity="0.1" stroke-width="0.5"/>
<rect x="6.89889" y="2.53598" width="345.5" height="253.5" stroke="black" stroke-opacity="0.1" stroke-width="0.5"/>
<rect x="7.89889" y="3.53598" width="343.5" height="251.5" stroke="black" stroke-opacity="0.1" stroke-width="0.5"/>
<rect x="8.89889" y="4.53598" width="341.5" height="249.5" stroke="black" stroke-opacity="0.1" stroke-width="0.5"/>
<rect x="9.89889" y="5.53598" width="339.5" height="247.5" stroke="black" stroke-opacity="0.1" stroke-width="0.5"/>
<rect x="10.8989" y="6.53598" width="337.5" height="245.5" stroke="black" stroke-opacity="0.1" stroke-width="0.5"/>
<rect x="11.8968" y="7.25003" width="336.5" height="243.5" stroke="black" stroke-opacity="0.1" stroke-width="0.5"/>
<rect x="13.2568" y="8.5" width="334" height="241" fill="#1F1F1F"/>
<line x1="12.6489" y1="20.286" x2="347.257" y2="20.286" stroke="white" stroke-opacity="0.1" stroke-width="2"/>
<line x1="12.6489" y1="30.286" x2="347.257" y2="30.286" stroke="white" stroke-opacity="0.1" stroke-width="2"/>
<line x1="12.6489" y1="40.286" x2="347.257" y2="40.286" stroke="white" stroke-opacity="0.1" stroke-width="2"/>
<line x1="12.6489" y1="50.286" x2="347.257" y2="50.286" stroke="white" stroke-opacity="0.1" stroke-width="2"/>
<line x1="12.6489" y1="60.286" x2="347.257" y2="60.286" stroke="white" stroke-opacity="0.1" stroke-width="2"/>
<line x1="12.6489" y1="70.286" x2="347.257" y2="70.286" stroke="white" stroke-opacity="0.1" stroke-width="2"/>
<line x1="12.6489" y1="80.286" x2="347.257" y2="80.286" stroke="white" stroke-opacity="0.1" stroke-width="2"/>
<line x1="12.6489" y1="90.286" x2="347.257" y2="90.286" stroke="white" stroke-opacity="0.1" stroke-width="2"/>
<line x1="12.6489" y1="100.286" x2="347.257" y2="100.286" stroke="white" stroke-opacity="0.1" stroke-width="2"/>
<line x1="12.6489" y1="110.286" x2="347.257" y2="110.286" stroke="white" stroke-opacity="0.1" stroke-width="2"/>
<line x1="12.6489" y1="120.286" x2="347.257" y2="120.286" stroke="white" stroke-opacity="0.1" stroke-width="2"/>
<line x1="12.6489" y1="130.286" x2="347.257" y2="130.286" stroke="white" stroke-opacity="0.1" stroke-width="2"/>
<line x1="12.6489" y1="140.286" x2="347.257" y2="140.286" stroke="white" stroke-opacity="0.1" stroke-width="2"/>
<line x1="12.6489" y1="150.286" x2="347.257" y2="150.286" stroke="white" stroke-opacity="0.1" stroke-width="2"/>
<line x1="12.6489" y1="160.286" x2="347.257" y2="160.286" stroke="white" stroke-opacity="0.1" stroke-width="2"/>
<line x1="12.6489" y1="170.286" x2="347.257" y2="170.286" stroke="white" stroke-opacity="0.1" stroke-width="2"/>
<line x1="12.6489" y1="180.286" x2="347.257" y2="180.286" stroke="white" stroke-opacity="0.1" stroke-width="2"/>
<line x1="12.6489" y1="190.286" x2="347.257" y2="190.286" stroke="white" stroke-opacity="0.1" stroke-width="2"/>
<line x1="12.6489" y1="200.286" x2="347.257" y2="200.286" stroke="white" stroke-opacity="0.1" stroke-width="2"/>
<line x1="12.6489" y1="210.286" x2="347.257" y2="210.286" stroke="white" stroke-opacity="0.1" stroke-width="2"/>
<line x1="12.6489" y1="220.286" x2="347.257" y2="220.286" stroke="white" stroke-opacity="0.1" stroke-width="2"/>
<line x1="12.6489" y1="230.286" x2="347.257" y2="230.286" stroke="white" stroke-opacity="0.1" stroke-width="2"/>
<line x1="12.6489" y1="240.286" x2="347.257" y2="240.286" stroke="white" stroke-opacity="0.1" stroke-width="2"/>
<path d="M4.58008 258.317L15.0134 246.188L16.0181 247.13L4.58008 258.317Z" fill="#1F1F1F"/>
<path d="M4.79052 0.342591L16.5657 11.1562L16.1401 11.6021L4.79052 0.342591Z" fill="#1F1F1F"/>
<path d="M354.538 0.34536L343.969 12.6893L343.308 12.0911L354.538 0.34536Z" fill="#1F1F1F"/>
<path d="M354.466 258.12L342.876 246.92L344.578 245.392L354.466 258.12Z" fill="#1F1F1F"/>
<g filter="url(#filter1_i)">
<path d="M25.2489 62.286C24.2089 62.286 23.3089 61.926 22.5489 61.206C21.8289 60.446 21.4689 59.546 21.4689 58.506V22.866C21.4689 22.106 21.7289 21.466 22.2489 20.946C22.7689 20.386 23.4089 20.106 24.1689 20.106C24.9289 20.106 25.5689 20.386 26.0889 20.946C26.6489 21.466 26.9289 22.106 26.9289 22.866V56.826H46.5489C47.3089 56.826 47.9489 57.106 48.4689 57.666C49.0289 58.186 49.3089 58.826 49.3089 59.586C49.3089 60.346 49.0289 60.986 48.4689 61.506C47.9489 62.026 47.3089 62.286 46.5489 62.286H25.2489Z" fill="white"/>
</g>
<g filter="url(#filter2_i)">
<path d="M73.3889 90.886C70.5489 90.886 67.8089 90.286 65.1689 89.086C62.5289 87.886 60.3689 86.066 58.6889 83.626C57.0089 81.146 56.1689 78.126 56.1689 74.566V50.866C56.1689 50.106 56.4289 49.466 56.9489 48.946C57.4689 48.386 58.1089 48.106 58.8689 48.106C59.6289 48.106 60.2689 48.386 60.7889 48.946C61.3489 49.466 61.6289 50.106 61.6289 50.866V74.746C61.6289 77.146 62.1689 79.186 63.2489 80.866C64.3689 82.546 65.8289 83.806 67.6289 84.646C69.4289 85.486 71.3489 85.906 73.3889 85.906C75.4289 85.906 77.3489 85.486 79.1489 84.646C80.9489 83.806 82.3889 82.546 83.4689 80.866C84.5889 79.186 85.1489 77.146 85.1489 74.746V50.866C85.1489 50.106 85.4089 49.466 85.9289 48.946C86.4489 48.386 87.0889 48.106 87.8489 48.106C88.6089 48.106 89.2489 48.386 89.7689 48.946C90.3289 49.466 90.6089 50.106 90.6089 50.866V74.566C90.6089 78.126 89.7689 81.146 88.0889 83.626C86.4089 86.066 84.2489 87.886 81.6089 89.086C78.9689 90.286 76.2289 90.886 73.3889 90.886Z" fill="white"/>
</g>
<g filter="url(#filter3_i)">
<path d="M102.169 111.586C101.409 111.586 100.769 111.326 100.249 110.806C99.7289 110.286 99.4689 109.646 99.4689 108.886V73.066C99.4689 71.986 99.8489 71.066 100.609 70.306C101.369 69.506 102.289 69.106 103.369 69.106H104.149C105.429 69.106 106.529 69.706 107.449 70.906L130.549 104.266V71.866C130.549 71.106 130.809 70.466 131.329 69.946C131.849 69.386 132.489 69.106 133.249 69.106C134.009 69.106 134.649 69.386 135.169 69.946C135.729 70.466 136.009 71.106 136.009 71.866V107.686C136.009 108.766 135.609 109.686 134.809 110.446C134.049 111.206 133.129 111.586 132.049 111.586H131.329C130.689 111.586 130.089 111.446 129.529 111.166C128.969 110.846 128.509 110.446 128.149 109.966L104.929 76.426V108.886C104.929 109.646 104.649 110.286 104.089 110.806C103.569 111.326 102.929 111.586 102.169 111.586Z" fill="white"/>
</g>
<g filter="url(#filter4_i)">
<path d="M159.949 131.886C155.949 131.886 152.349 131.026 149.149 129.306C145.989 127.546 143.489 125.046 141.649 121.806C139.849 118.526 138.949 114.706 138.949 110.346C138.949 105.986 139.849 102.186 141.649 98.946C143.489 95.666 145.989 93.166 149.149 91.446C152.349 89.686 155.949 88.806 159.949 88.806C162.669 88.806 165.089 89.126 167.209 89.766C169.369 90.406 171.509 91.326 173.629 92.526C174.509 93.006 174.949 93.766 174.949 94.806C174.949 95.406 174.729 95.946 174.289 96.426C173.849 96.866 173.269 97.086 172.549 97.086C172.149 97.086 171.789 97.006 171.469 96.846C169.709 95.926 167.989 95.226 166.309 94.746C164.629 94.266 162.689 94.026 160.489 94.026C157.049 94.026 154.109 94.746 151.669 96.186C149.269 97.586 147.449 99.526 146.209 102.006C145.009 104.446 144.409 107.226 144.409 110.346C144.409 113.466 145.009 116.266 146.209 118.746C147.449 121.186 149.269 123.126 151.669 124.566C154.109 125.966 157.049 126.666 160.489 126.666C162.689 126.666 164.629 126.426 166.309 125.946C167.989 125.466 169.709 124.766 171.469 123.846C171.789 123.686 172.149 123.606 172.549 123.606C173.269 123.606 173.849 123.826 174.289 124.266C174.729 124.706 174.949 125.246 174.949 125.886C174.949 126.926 174.509 127.686 173.629 128.166C171.509 129.366 169.369 130.286 167.209 130.926C165.089 131.566 162.669 131.886 159.949 131.886Z" fill="white"/>
</g>
<g filter="url(#filter5_i)">
<path d="M185.169 152.586C184.409 152.586 183.769 152.326 183.249 151.806C182.729 151.286 182.469 150.646 182.469 149.886V112.866C182.469 112.106 182.729 111.466 183.249 110.946C183.769 110.386 184.409 110.106 185.169 110.106C185.929 110.106 186.569 110.386 187.089 110.946C187.649 111.466 187.929 112.106 187.929 112.866V128.826H210.669V112.866C210.669 112.106 210.929 111.466 211.449 110.946C211.969 110.386 212.609 110.106 213.369 110.106C214.129 110.106 214.769 110.386 215.289 110.946C215.849 111.466 216.129 112.106 216.129 112.866V149.886C216.129 150.646 215.849 151.286 215.289 151.806C214.769 152.326 214.129 152.586 213.369 152.586C212.609 152.586 211.969 152.326 211.449 151.806C210.929 151.286 210.669 150.646 210.669 149.886V133.926H187.929V149.886C187.929 150.646 187.649 151.286 187.089 151.806C186.569 152.326 185.929 152.586 185.169 152.586Z" fill="white"/>
</g>
<g filter="url(#filter6_i)">
<path d="M229.169 171.286C228.409 171.286 227.769 171.026 227.249 170.506C226.729 169.986 226.469 169.346 226.469 168.586V132.166C226.469 131.406 226.729 130.766 227.249 130.246C227.769 129.686 228.409 129.406 229.169 129.406H253.229C253.949 129.406 254.549 129.666 255.029 130.186C255.549 130.666 255.809 131.266 255.809 131.986C255.809 132.706 255.549 133.306 255.029 133.786C254.549 134.266 253.949 134.506 253.229 134.506H231.929V147.766H251.069C251.789 147.766 252.389 148.026 252.869 148.546C253.389 149.026 253.649 149.626 253.649 150.346C253.649 151.066 253.389 151.666 252.869 152.146C252.389 152.626 251.789 152.866 251.069 152.866H231.929V166.186H253.229C253.949 166.186 254.549 166.446 255.029 166.966C255.549 167.446 255.809 168.046 255.809 168.766C255.809 169.486 255.549 170.086 255.029 170.566C254.549 171.046 253.949 171.286 253.229 171.286H229.169Z" fill="white"/>
</g>
<g filter="url(#filter7_i)">
<path d="M281.009 201.886C276.809 201.886 273.129 200.966 269.969 199.126C266.809 197.286 264.369 194.746 262.649 191.506C260.929 188.266 260.029 184.546 259.949 180.346C260.029 176.146 260.929 172.426 262.649 169.186C264.369 165.946 266.809 163.406 269.969 161.566C273.129 159.726 276.809 158.806 281.009 158.806C285.209 158.806 288.869 159.726 291.989 161.566C295.149 163.406 297.589 165.966 299.309 169.246C301.069 172.486 301.989 176.186 302.069 180.346C301.989 184.506 301.069 188.226 299.309 191.506C297.589 194.746 295.149 197.286 291.989 199.126C288.869 200.966 285.209 201.886 281.009 201.886ZM281.009 196.786C284.209 196.786 286.989 196.066 289.349 194.626C291.709 193.186 293.509 191.226 294.749 188.746C295.989 186.266 296.609 183.466 296.609 180.346C296.609 177.226 295.989 174.426 294.749 171.946C293.509 169.466 291.709 167.506 289.349 166.066C286.989 164.626 284.209 163.906 281.009 163.906C277.769 163.906 274.969 164.626 272.609 166.066C270.289 167.506 268.509 169.466 267.269 171.946C266.029 174.426 265.409 177.226 265.409 180.346C265.409 183.466 266.029 186.266 267.269 188.746C268.509 191.226 270.289 193.186 272.609 194.626C274.969 196.066 277.769 196.786 281.009 196.786Z" fill="white"/>
</g>
<g filter="url(#filter8_i)">
<path d="M309.169 221.586C308.409 221.586 307.769 221.326 307.249 220.806C306.729 220.286 306.469 219.646 306.469 218.886V183.066C306.469 181.986 306.849 181.066 307.609 180.306C308.369 179.506 309.289 179.106 310.369 179.106H311.149C312.429 179.106 313.529 179.706 314.449 180.906L337.549 214.266V181.866C337.549 181.106 337.809 180.466 338.329 179.946C338.849 179.386 339.489 179.106 340.249 179.106C341.009 179.106 341.649 179.386 342.169 179.946C342.729 180.466 343.009 181.106 343.009 181.866V217.686C343.009 218.766 342.609 219.686 341.809 220.446C341.049 221.206 340.129 221.586 339.049 221.586H338.329C337.689 221.586 337.089 221.446 336.529 221.166C335.969 220.846 335.509 220.446 335.149 219.966L311.929 186.426V218.886C311.929 219.646 311.649 220.286 311.089 220.806C310.569 221.326 309.929 221.586 309.169 221.586Z" fill="white"/>
</g>
<defs>
<filter id="filter0_d" x="0.648888" y="0.28598" width="358" height="266" filterUnits="userSpaceOnUse" color-interpolation-filters="sRGB">
<feFlood flood-opacity="0" result="BackgroundImageFix"/>
<feColorMatrix in="SourceAlpha" type="matrix" values="0 0 0 0 0 0 0 0 0 0 0 0 0 0 0 0 0 0 127 0"/>
<feOffset dy="4"/>
<feGaussianBlur stdDeviation="2"/>
<feColorMatrix type="matrix" values="0 0 0 0 0 0 0 0 0 0 0 0 0 0 0 0 0 0 0.25 0"/>
<feBlend mode="normal" in2="BackgroundImageFix" result="effect1_dropShadow"/>
<feBlend mode="normal" in="SourceGraphic" in2="effect1_dropShadow" result="shape"/>
</filter>
<filter id="filter1_i" x="21.4689" y="20.106" width="31.84" height="46.18" filterUnits="userSpaceOnUse" color-interpolation-filters="sRGB">
<feFlood flood-opacity="0" result="BackgroundImageFix"/>
<feBlend mode="normal" in="SourceGraphic" in2="BackgroundImageFix" result="shape"/>
<feColorMatrix in="SourceAlpha" type="matrix" values="0 0 0 0 0 0 0 0 0 0 0 0 0 0 0 0 0 0 127 0" result="hardAlpha"/>
<feOffset dx="4" dy="4"/>
<feGaussianBlur stdDeviation="2.5"/>
<feComposite in2="hardAlpha" operator="arithmetic" k2="-1" k3="1"/>
<feColorMatrix type="matrix" values="0 0 0 0 0 0 0 0 0 0 0 0 0 0 0 0 0 0 0.05 0"/>
<feBlend mode="normal" in2="shape" result="effect1_innerShadow"/>
</filter>
<filter id="filter2_i" x="56.1689" y="48.106" width="38.44" height="46.78" filterUnits="userSpaceOnUse" color-interpolation-filters="sRGB">
<feFlood flood-opacity="0" result="BackgroundImageFix"/>
<feBlend mode="normal" in="SourceGraphic" in2="BackgroundImageFix" result="shape"/>
<feColorMatrix in="SourceAlpha" type="matrix" values="0 0 0 0 0 0 0 0 0 0 0 0 0 0 0 0 0 0 127 0" result="hardAlpha"/>
<feOffset dx="4" dy="4"/>
<feGaussianBlur stdDeviation="2.5"/>
<feComposite in2="hardAlpha" operator="arithmetic" k2="-1" k3="1"/>
<feColorMatrix type="matrix" values="0 0 0 0 0 0 0 0 0 0 0 0 0 0 0 0 0 0 0.05 0"/>
<feBlend mode="normal" in2="shape" result="effect1_innerShadow"/>
</filter>
<filter id="filter3_i" x="99.4689" y="69.106" width="40.54" height="46.48" filterUnits="userSpaceOnUse" color-interpolation-filters="sRGB">
<feFlood flood-opacity="0" result="BackgroundImageFix"/>
<feBlend mode="normal" in="SourceGraphic" in2="BackgroundImageFix" result="shape"/>
<feColorMatrix in="SourceAlpha" type="matrix" values="0 0 0 0 0 0 0 0 0 0 0 0 0 0 0 0 0 0 127 0" result="hardAlpha"/>
<feOffset dx="4" dy="4"/>
<feGaussianBlur stdDeviation="2.5"/>
<feComposite in2="hardAlpha" operator="arithmetic" k2="-1" k3="1"/>
<feColorMatrix type="matrix" values="0 0 0 0 0 0 0 0 0 0 0 0 0 0 0 0 0 0 0.05 0"/>
<feBlend mode="normal" in2="shape" result="effect1_innerShadow"/>
</filter>
<filter id="filter4_i" x="138.949" y="88.806" width="40" height="47.08" filterUnits="userSpaceOnUse" color-interpolation-filters="sRGB">
<feFlood flood-opacity="0" result="BackgroundImageFix"/>
<feBlend mode="normal" in="SourceGraphic" in2="BackgroundImageFix" result="shape"/>
<feColorMatrix in="SourceAlpha" type="matrix" values="0 0 0 0 0 0 0 0 0 0 0 0 0 0 0 0 0 0 127 0" result="hardAlpha"/>
<feOffset dx="4" dy="4"/>
<feGaussianBlur stdDeviation="2.5"/>
<feComposite in2="hardAlpha" operator="arithmetic" k2="-1" k3="1"/>
<feColorMatrix type="matrix" values="0 0 0 0 0 0 0 0 0 0 0 0 0 0 0 0 0 0 0.05 0"/>
<feBlend mode="normal" in2="shape" result="effect1_innerShadow"/>
</filter>
<filter id="filter5_i" x="182.469" y="110.106" width="37.66" height="46.48" filterUnits="userSpaceOnUse" color-interpolation-filters="sRGB">
<feFlood flood-opacity="0" result="BackgroundImageFix"/>
<feBlend mode="normal" in="SourceGraphic" in2="BackgroundImageFix" result="shape"/>
<feColorMatrix in="SourceAlpha" type="matrix" values="0 0 0 0 0 0 0 0 0 0 0 0 0 0 0 0 0 0 127 0" result="hardAlpha"/>
<feOffset dx="4" dy="4"/>
<feGaussianBlur stdDeviation="2.5"/>
<feComposite in2="hardAlpha" operator="arithmetic" k2="-1" k3="1"/>
<feColorMatrix type="matrix" values="0 0 0 0 0 0 0 0 0 0 0 0 0 0 0 0 0 0 0.05 0"/>
<feBlend mode="normal" in2="shape" result="effect1_innerShadow"/>
</filter>
<filter id="filter6_i" x="226.469" y="129.406" width="33.34" height="45.88" filterUnits="userSpaceOnUse" color-interpolation-filters="sRGB">
<feFlood flood-opacity="0" result="BackgroundImageFix"/>
<feBlend mode="normal" in="SourceGraphic" in2="BackgroundImageFix" result="shape"/>
<feColorMatrix in="SourceAlpha" type="matrix" values="0 0 0 0 0 0 0 0 0 0 0 0 0 0 0 0 0 0 127 0" result="hardAlpha"/>
<feOffset dx="4" dy="4"/>
<feGaussianBlur stdDeviation="2.5"/>
<feComposite in2="hardAlpha" operator="arithmetic" k2="-1" k3="1"/>
<feColorMatrix type="matrix" values="0 0 0 0 0 0 0 0 0 0 0 0 0 0 0 0 0 0 0.05 0"/>
<feBlend mode="normal" in2="shape" result="effect1_innerShadow"/>
</filter>
<filter id="filter7_i" x="259.949" y="158.806" width="46.12" height="47.08" filterUnits="userSpaceOnUse" color-interpolation-filters="sRGB">
<feFlood flood-opacity="0" result="BackgroundImageFix"/>
<feBlend mode="normal" in="SourceGraphic" in2="BackgroundImageFix" result="shape"/>
<feColorMatrix in="SourceAlpha" type="matrix" values="0 0 0 0 0 0 0 0 0 0 0 0 0 0 0 0 0 0 127 0" result="hardAlpha"/>
<feOffset dx="4" dy="4"/>
<feGaussianBlur stdDeviation="2.5"/>
<feComposite in2="hardAlpha" operator="arithmetic" k2="-1" k3="1"/>
<feColorMatrix type="matrix" values="0 0 0 0 0 0 0 0 0 0 0 0 0 0 0 0 0 0 0.05 0"/>
<feBlend mode="normal" in2="shape" result="effect1_innerShadow"/>
</filter>
<filter id="filter8_i" x="306.469" y="179.106" width="40.54" height="46.48" filterUnits="userSpaceOnUse" color-interpolation-filters="sRGB">
<feFlood flood-opacity="0" result="BackgroundImageFix"/>
<feBlend mode="normal" in="SourceGraphic" in2="BackgroundImageFix" result="shape"/>
<feColorMatrix in="SourceAlpha" type="matrix" values="0 0 0 0 0 0 0 0 0 0 0 0 0 0 0 0 0 0 127 0" result="hardAlpha"/>
<feOffset dx="4" dy="4"/>
<feGaussianBlur stdDeviation="2.5"/>
<feComposite in2="hardAlpha" operator="arithmetic" k2="-1" k3="1"/>
<feColorMatrix type="matrix" values="0 0 0 0 0 0 0 0 0 0 0 0 0 0 0 0 0 0 0.05 0"/>
<feBlend mode="normal" in2="shape" result="effect1_innerShadow"/>
</filter>
</defs>
</svg>
